# xmcd
#
# Track frame offsets:
#	150
#	12736
#	21608
#	36334
#	51947
#	61265
#	75634
#	86256
#	103170
#	113524
#	133961
#	152230
#	168275
#	185252
# Disc length: 2611 seconds
# Revision: 1
# Processed by: cddbd v1.5.2PL0 Copyright (c) Steve Scherf et al.
#
# Submitted via: libkcddb 0.21
#
DISCID=b90a310e
DTITLE=El Condor Pasa - Spirit of the Inkas
DYEAR=1997
DGENRE=New Age
TTITLE0=El Condor Pasa
TTITLE1=Bolivianita
TTITLE2=Otovalena
TTITLE3=Indios Guerilleros
TTITLE4=Surazo
TTITLE5=Bocina
TTITLE6=Tupai Amaru
TTITLE7=El Inca
TTITLE8=Cuzco
TTITLE9=Rio Triste
TTITLE10=Octubre
TTITLE11=Reveldia De Los Condores
TTITLE12=Son Cayman
TTITLE13=Tema De Siku
EXTD=YEAR: 1997
EXTT0=
EXTT1=
EXTT2=
EXTT3=
EXTT4=
EXTT5=
EXTT6=
EXTT7=
EXTT8=
EXTT9=
EXTT10=
EXTT11=
EXTT12=
EXTT13=
PLAYORDER=
